<?xml version="1.0" standalone="no"?>
<!DOCTYPE svg PUBLIC "-//W3C//DTD SVG 20010904//EN"
 "http://www.w3.org/TR/2001/REC-SVG-20010904/DTD/svg10.dtd">
<svg version="1.0" xmlns="http://www.w3.org/2000/svg"
 width="1024.000000pt" height="1024.000000pt" viewBox="0 0 1024.000000 1024.000000"
 preserveAspectRatio="xMidYMid meet">

<g transform="translate(0.000000,1024.000000) scale(0.100000,-0.100000)"
fill="#000000" stroke="none">
<path d="M5132 8613 c-7 -3 -24 -28 -36 -57 -29 -64 -75 -108 -149 -141 -40
-19 -61 -35 -68 -53 -17 -45 1 -72 76 -111 52 -27 75 -46 96 -80 l29 -45 0
-263 0 -263 -220 0 -220 0 0 319 0 319 31 58 c37 72 35 121 -7 165 -42 44 -86
55 -141 34 -82 -32 -109 -127 -58 -210 l24 -40 1 -322 0 -323 -591 0 c-397 0
-606 -4 -637 -11 -26 -6 -87 -31 -137 -54 -155 -74 -272 -216 -310 -376 -11
-49 -15 -130 -15 -346 l0 -283 -561 -2 -561 -3 -19 -24 c-30 -36 -25 -84 12
-115 l31 -26 549 0 549 0 0 -166 0 -166 -112 3 c-94 4 -120 8 -158 28 -61 31
-88 57 -117 116 -29 57 -38 65 -74 65 -31 0 -54 -24 -89 -93 -23 -47 -33 -56
-105 -92 -59 -30 -82 -48 -89 -67 -16 -45 5 -74 77 -106 75 -34 100 -58 133
-129 41 -86 103 -84 148 4 49 98 85 113 263 113 l123 0 0 -130 0 -130 -454 0
-453 0 -36 33 c-94 90 -250 64 -292 -47 -55 -144 62 -285 205 -246 27 7 58 27
86 56 l45 44 449 0 450 0 0 -100 0 -100 -406 0 c-240 0 -403 -4 -400 -9 4 -5
-3 -7 -14 -4 -52 14 -82 -74 -39 -113 24 -21 64 -23 592 -24 l267 0 0 -80 0
-80 -476 0 c-467 0 -476 0 -505 21 -52 37 -93 43 -143 20 -50 -22 -76 -61 -76
-113 0 -39 30 -92 62 -109 35 -19 101 -15 139 8 33 19 50 19 484 16 248 -1
465 -3 483 -3 l32 0 0 -80 c0 -91 -11 -113 -49 -99 -13 5 -256 8 -555 6 -573
-3 -565 -2 -636 -57 -33 -26 -97 -122 -71 -106 7 5 16 19 22 33 5 13 13 21 19
18 6 -4 7 1 3 11 -5 14 -3 16 11 11 10 -4 15 -3 11 3 -8 13 8 13 22 -1 8 -8
13 -8 18 0 3 6 1 10 -6 9 -6 -2 -13 2 -15 7 -5 13 45 37 59 28 6 -3 7 -1 4 4
-4 6 3 11 16 12 12 0 56 2 97 4 41 2 47 2 13 0 -35 -2 -63 -8 -63 -13 0 -4 27
-6 60 -3 38 4 60 2 60 -4 0 -6 -13 -9 -29 -8 -20 2 -28 -2 -27 -13 0 -9 -10
-19 -24 -23 -24 -7 -24 -7 -2 -8 12 -1 22 -7 22 -16 0 -15 19 -19 70 -17 14 1
20 -1 14 -4 -7 -3 -1 -16 16 -34 20 -21 26 -36 22 -55 -3 -18 3 -34 19 -52 13
-14 18 -23 10 -18 -10 6 -11 2 -5 -16 4 -13 8 -33 7 -44 0 -18 5 -20 43 -16
l44 3 0 79 0 79 -35 0 c-21 0 -35 -5 -35 -12 0 -9 -3 -8 -10 2 -5 9 -5 19 1
27 6 6 8 22 4 34 -6 17 -9 18 -16 8 -4 -7 -12 -10 -16 -5 -4 4 0 13 10 20 9 7
17 18 17 24 0 6 19 12 42 14 38 3 43 6 40 26 -2 14 2 22 12 22 12 0 15 -10 13
-44 -2 -42 -2 -43 25 -41 22 2 28 -2 28 -17 0 -10 7 -21 15 -24 8 -4 15 -12
15 -20 0 -10 14 -14 50 -14 36 0 50 4 50 14 0 8 6 16 14 19 8 3 16 16 18 29 3
20 8 23 40 20 23 -2 38 1 38 7 0 6 -16 11 -35 11 -19 0 -35 4 -35 8 0 4 31 8
69 7 50 -1 73 -6 86 -18 16 -17 16 -19 -10 -53 -14 -19 -24 -42 -22 -52 4 -15
5 -15 6 1 0 10 14 32 30 49 36 38 94 47 142 22 27 -14 31 -14 26 -1 -6 16 8
17 34 2 19 -11 36 -75 20 -75 -5 0 -13 5 -17 12 -4 7 -3 8 4 4 18 -11 14 3 -6
29 -18 23 -18 23 -14 -31 5 -62 -10 -107 -41 -122 -29 -15 -119 -24 -112 -11
4 5 2 9 -4 9 -6 0 -22 12 -36 28 l-26 27 3 -25 c2 -14 9 -24 16 -23 12 3 12
-23 -1 -44 -5 -8 -1 -10 15 -6 13 3 31 6 41 6 9 1 17 6 17 11 0 5 6 2 13 -7 6
-10 28 -20 48 -23 32 -5 38 -3 44 15 3 11 10 21 14 21 4 0 17 9 29 20 12 12
22 17 22 13 0 -13 -14 -29 -35 -40 -18 -10 -17 -11 7 -10 14 1 24 5 22 9 -8
12 20 22 56 19 42 -3 67 18 55 46 -13 31 -23 93 -14 87 5 -3 9 33 9 80 0 52 4
86 10 86 7 0 9 -44 8 -125 -2 -69 0 -125 4 -125 5 0 8 55 8 122 0 174 17 136
22 -47 3 -148 -4 -192 -24 -164 -8 11 -9 10 -4 -3 5 -16 -4 -23 -26 -19 -4 0
-5 -6 -2 -14 9 -23 68 38 150 157 l74 107 0 1303 c0 1413 -2 1351 55 1457 34
61 114 140 175 171 104 53 2 50 1932 52 2004 1 1844 7 1964 -70 72 -46 123
-106 161 -188 l28 -59 5 -1340 5 -1340 44 -60 c24 -33 45 -61 46 -63 2 -2 255
-3 564 -2 l562 0 43 -25 c127 -74 269 41 207 168 -29 59 -71 81 -140 75 -38
-4 -59 -12 -80 -32 l-27 -26 -534 0 -533 0 6 107 c4 58 8 165 9 237 1 94 3
116 8 76 5 -46 7 -50 11 -25 4 18 7 1 8 -45 2 -41 5 -69 8 -62 9 23 23 12 23
-18 0 -29 2 -30 45 -30 25 0 45 -5 45 -11 0 -6 16 -9 38 -7 35 3 37 5 40 41 3
35 5 37 37 37 52 0 68 9 53 28 -10 12 -10 14 0 8 17 -10 15 24 -3 48 -10 14
-12 23 -4 32 7 9 5 16 -8 24 -16 10 -16 11 5 6 20 -4 21 -2 10 11 -12 15 -11
15 9 4 13 -6 22 -17 20 -23 -1 -6 3 -12 9 -15 22 -8 10 29 -15 45 -21 14 -54
17 -186 18 l-160 1 -3 65 c-3 60 -1 66 18 71 12 3 117 6 234 7 l212 1 25 -52
c31 -66 91 -128 154 -159 42 -21 64 -25 140 -25 106 0 160 20 222 82 153 153
109 415 -85 510 -48 24 -70 28 -137 28 -137 0 -235 -63 -297 -189 l-22 -46
-230 0 -231 0 1 300 0 301 447 1 446 0 33 -27 c76 -64 157 -70 232 -18 61 43
88 95 82 161 -14 154 -185 222 -301 121 -19 -17 -37 -39 -40 -50 -6 -18 -20
-19 -453 -19 l-447 0 -3 165 -2 164 273 3 273 3 66 33 c77 38 130 92 167 171
23 49 26 69 26 156 0 89 -3 106 -27 150 -37 72 -98 136 -159 170 l-54 30 -279
5 -279 5 -13 64 c-20 96 -64 179 -133 254 -73 78 -145 127 -238 165 l-68 27
-530 5 -530 5 -3 144 c-1 86 -7 150 -14 158 -26 32 -133 3 -143 -40 -3 -12 -6
-76 -8 -142 l-2 -120 -257 0 -258 0 0 257 c0 157 4 268 11 285 16 42 58 82
120 114 62 31 84 66 67 105 -5 12 -41 36 -79 55 -83 39 -95 51 -134 132 -26
54 -34 62 -60 64 -16 1 -36 -1 -43 -4z m2358 -1695 c0 -9 3 -9 8 -2 4 7 74 10
202 10 169 -1 198 -3 220 -18 13 -10 39 -18 57 -18 37 0 49 -13 33 -37 -10
-16 -10 -16 -6 2 5 16 0 20 -24 22 -17 1 -30 -2 -30 -7 0 -6 -4 -10 -10 -10
-5 0 -10 7 -10 16 0 8 -5 12 -10 9 -6 -4 -8 -11 -5 -16 8 -12 -18 -12 -31 1
-6 6 -15 6 -24 0 -12 -8 -10 -10 10 -11 l25 -1 -25 -9 c-19 -7 -15 -8 20 -4
25 2 39 1 32 -2 -10 -4 -4 -13 18 -32 23 -19 33 -37 37 -69 3 -23 10 -45 16
-49 6 -4 8 0 4 10 -4 10 -2 16 6 14 8 -1 12 16 12 56 0 54 7 72 19 45 3 -7 3
1 -1 17 -5 29 -5 29 10 10 9 -11 17 -27 17 -35 0 -9 5 -21 11 -27 12 -12 14
-133 2 -142 -4 -3 -13 -15 -19 -25 -6 -11 -23 -29 -37 -40 -27 -20 -27 -20
-41 0 -12 15 -18 17 -34 8 -20 -13 -69 -8 -79 9 -4 6 4 7 21 3 15 -4 25 -3 23
1 -3 5 8 18 24 28 16 11 31 25 33 32 3 6 -12 0 -32 -14 -47 -31 -102 -27 -141
11 -21 21 -26 36 -26 74 0 46 -1 47 -16 28 -17 -21 -12 -53 12 -82 13 -15 0
-46 -17 -40 -7 3 -16 1 -19 -4 -9 -15 7 -40 25 -40 11 0 22 -4 25 -10 3 -5 14
-10 23 -9 13 0 11 3 -6 11 -13 6 -21 17 -18 24 3 7 1 14 -4 16 -6 2 -6 9 0 18
8 13 11 13 22 -2 7 -10 24 -22 38 -28 23 -10 23 -10 -8 -5 -20 3 -31 1 -27 -5
3 -6 16 -10 28 -10 12 0 29 -5 37 -11 11 -8 8 -9 -15 -5 -24 5 -27 4 -12 -5
10 -6 31 -8 46 -4 17 4 32 2 36 -5 3 -5 11 -8 16 -4 6 3 22 3 37 -1 l27 -8
-30 -13 c-22 -10 -93 -13 -272 -14 l-243 0 0 195 c0 170 2 195 16 195 8 0 12
5 9 10 -3 6 -1 10 4 10 6 0 11 -6 11 -12z m488 -103 c12 -14 18 -25 13 -25 -5
0 -16 11 -25 25 -9 14 -15 25 -13 25 2 0 13 -11 25 -25z m299 -1495 c49 -29
65 -62 69 -139 3 -59 1 -73 -18 -96 -24 -30 -75 -56 -110 -54 -22 1 -22 1 2 9
21 7 17 8 -21 9 -141 3 -177 196 -50 269 45 27 87 28 128 2z m-800 -402 c-3
-8 -6 -5 -6 6 -1 11 2 17 5 13 3 -3 4 -12 1 -19z m230 14 c9 -6 8 -11 -5 -19
-15 -9 -18 -7 -19 8 -2 20 5 23 24 11z m-190 -64 c-3 -8 -6 -5 -6 6 -1 11 2
17 5 13 3 -3 4 -12 1 -19z m190 16 c-3 -3 -12 -4 -19 -1 -8 3 -5 6 6 6 11 1
17 -2 13 -5z m-210 -66 c-2 -13 -4 -3 -4 22 0 25 2 35 4 23 2 -13 2 -33 0 -45z
m-5594 -235 c-7 -2 -21 -2 -30 0 -10 3 -4 5 12 5 17 0 24 -2 18 -5z m160 0
c-13 -2 -33 -2 -45 0 -13 2 -3 4 22 4 25 0 35 -2 23 -4z m240 0 c-13 -2 -33
-2 -45 0 -13 2 -3 4 22 4 25 0 35 -2 23 -4z m422 -3 c-3 -5 -34 -9 -68 -8
l-62 1 65 7 c36 4 66 7 68 8 2 1 0 -2 -3 -8z m-832 -17 c-7 -2 -21 -2 -30 0
-10 3 -4 5 12 5 17 0 24 -2 18 -5z m370 0 c-35 -2 -91 -2 -125 0 -35 2 -7 3
62 3 69 0 97 -1 63 -3z m-463 -64 c0 -5 -7 -9 -15 -9 -8 0 -15 7 -15 15 0 9 6
12 15 9 8 -4 15 -10 15 -15z m927 -46 c-3 -10 -5 -4 -5 12 0 17 2 24 5 18 2
-7 2 -21 0 -30z m-828 -18 c6 -3 11 -1 11 6 0 7 2 10 5 7 7 -7 -5 -38 -14 -38
-11 0 -41 57 -34 64 4 4 10 -2 14 -13 4 -10 12 -22 18 -26z m291 31 c0 -17
-24 -28 -45 -20 -27 11 -17 34 15 34 19 0 30 -5 30 -14z m494 -51 c-4 -9 0
-15 8 -15 8 0 15 -7 15 -15 0 -8 -5 -15 -10 -15 -5 0 -7 -9 -4 -20 3 -11 1
-20 -4 -20 -5 0 -9 9 -9 19 0 11 -6 21 -12 23 -10 4 -10 10 -1 31 13 28 27 38
17 12z m-774 -24 c0 -6 -4 -13 -10 -16 -5 -3 -10 1 -10 9 0 9 5 16 10 16 6 0
10 -4 10 -9z m7 -43 c-3 -8 -6 -5 -6 6 -1 11 2 17 5 13 3 -3 4 -12 1 -19z
m700 -49 c-12 -9 -24 -15 -27 -12 -3 2 3 10 13 17 9 7 17 19 17 27 0 12 2 12
9 0 6 -10 3 -20 -12 -32z m-191 -28 c-4 -5 -1 -11 6 -13 8 -3 6 -6 -4 -10 -11
-5 -15 -2 -13 10 5 23 4 22 11 22 3 0 3 -4 0 -9z"/>
<path d="M7505 6900 c-12 -5 1 -6 35 -3 30 3 57 7 59 9 9 8 -75 2 -94 -6z"/>
<path d="M7466 6885 c-3 -9 -5 -33 -5 -53 2 -33 2 -32 9 13 8 53 6 66 -4 40z"/>
<path d="M7605 6893 c-38 -2 -73 -7 -77 -11 -4 -4 36 -4 88 -1 52 3 97 9 101
13 3 3 -5 5 -18 4 -13 -1 -55 -4 -94 -5z"/>
<path d="M7817 6869 c7 -7 15 -10 18 -7 3 3 -2 9 -12 12 -14 6 -15 5 -6 -5z"/>
<path d="M7804 6839 c0 -21 5 -23 23 -11 9 6 8 11 -5 19 -15 9 -18 7 -18 -8z"/>
<path d="M7483 6760 c0 -25 2 -35 4 -22 2 12 2 32 0 45 -2 12 -4 2 -4 -23z"/>
<path d="M7578 6793 c7 -3 16 -2 19 1 4 3 -2 6 -13 5 -11 0 -14 -3 -6 -6z"/>
<path d="M7687 6684 c-4 -4 -7 -16 -7 -26 0 -10 -4 -18 -10 -18 -5 0 -10 -16
-10 -35 0 -26 -4 -35 -17 -36 -10 -1 -2 -5 17 -9 23 -6 39 -5 45 2 7 7 6 9 -1
5 -7 -4 -15 0 -18 9 -11 29 -6 63 10 72 12 7 14 14 7 26 -5 9 -12 13 -16 10z"/>
<path d="M7973 6665 c0 -22 2 -24 15 -13 9 7 13 8 10 3 -4 -6 -3 -17 1 -24 6
-9 9 -3 9 15 0 26 -12 43 -29 44 -4 0 -6 -11 -6 -25z"/>
<path d="M8020 6620 c0 -5 5 -10 10 -10 6 0 10 5 10 10 0 6 -4 10 -10 10 -5 0
-10 -4 -10 -10z"/>
<path d="M7760 6553 c0 -7 -18 -13 -42 -16 -24 -2 -1 -2 50 -1 100 2 119 7 75
19 -45 12 -83 11 -83 -2z"/>
<path d="M7890 6540 c19 -13 30 -13 30 0 0 6 -10 10 -22 10 -19 0 -20 -2 -8
-10z"/>
<path d="M7935 6540 c-3 -6 1 -7 9 -4 18 7 21 14 7 14 -6 0 -13 -4 -16 -10z"/>
<path d="M7498 6533 c6 -2 18 -2 25 0 6 3 1 5 -13 5 -14 0 -19 -2 -12 -5z"/>
<path d="M8315 5100 c3 -5 8 -10 11 -10 2 0 4 5 4 10 0 6 -5 10 -11 10 -5 0
-7 -4 -4 -10z"/>
<path d="M8260 5060 c-9 -6 -10 -10 -3 -10 6 0 15 5 18 10 8 12 4 12 -15 0z"/>
<path d="M4024 8399 c-38 -19 -44 -52 -44 -225 0 -147 -2 -169 -19 -193 -65
-92 -7 -211 104 -211 121 0 177 133 94 225 -15 17 -18 43 -21 192 -3 157 -5
174 -23 192 -25 25 -64 33 -91 20z"/>
<path d="M6615 8300 c-22 -11 -50 -34 -63 -50 -13 -17 -32 -30 -42 -30 -16 0
-17 -4 -10 -30 5 -17 5 -28 0 -25 -9 6 -20 -66 -11 -80 3 -5 9 6 12 25 l6 35
2 -32 c1 -21 6 -33 15 -33 7 0 21 -11 29 -24 26 -40 101 -70 154 -62 156 21
197 214 64 303 -43 29 -103 30 -156 3z"/>
<path d="M5585 8213 c-11 -3 -31 -10 -45 -16 -14 -5 -32 -11 -40 -13 -8 -2
-22 -12 -32 -23 -9 -12 -20 -21 -25 -21 -20 0 -32 -23 -22 -42 11 -20 -1 -24
-19 -6 -7 7 -12 10 -13 8 -11 -61 -11 -62 13 -49 13 7 44 11 70 10 56 -3 73 4
55 24 -8 9 -16 10 -24 3 -10 -8 -13 -6 -13 7 0 14 5 16 28 10 15 -3 29 -11 30
-16 5 -12 52 -12 52 1 0 6 -7 10 -15 10 -9 0 -15 9 -15 22 0 20 1 20 13 5 11
-15 12 -14 14 13 2 28 0 30 -20 24 -12 -4 -24 -10 -27 -14 -3 -4 -18 -11 -35
-17 -16 -5 -34 -19 -40 -31 -11 -26 -37 -39 -28 -15 4 11 2 14 -5 9 -24 -15
-11 8 27 46 23 22 42 34 46 28 3 -5 1 -10 -6 -10 -7 0 -10 -3 -7 -6 7 -7 50
17 61 34 6 9 13 9 27 2 10 -5 25 -10 32 -9 7 0 4 5 -7 10 -15 7 -11 8 15 4 87
-14 239 -21 405 -19 115 2 174 0 165 -6 -12 -7 -9 -10 13 -10 32 0 35 -15 7
-30 -11 -6 -20 -8 -20 -4 0 3 -6 1 -13 -5 -8 -6 -17 -8 -21 -4 -9 9 -86 13
-86 4 0 -3 -41 -7 -90 -8 -50 0 -103 -4 -118 -8 -15 -4 -46 -7 -69 -6 -25 2
-43 -2 -43 -8 0 -8 104 -11 341 -11 228 0 338 3 334 10 -4 6 -11 8 -16 5 -5
-4 -16 1 -25 9 -8 9 -22 17 -30 17 -8 1 -23 3 -34 4 -11 1 -28 3 -37 4 -15 1
-15 3 -4 10 11 7 9 10 -10 14 -13 2 10 6 51 7 70 3 72 4 30 10 -25 4 -40 8
-35 10 6 2 -10 6 -35 10 -42 7 -40 7 25 8 81 2 124 -6 103 -19 -8 -6 3 -9 30
-9 39 0 43 2 40 23 l-3 22 -440 1 c-242 1 -449 -1 -460 -3z m431 -20 c-7 -8
-328 -5 -335 3 -2 2 74 4 169 4 95 0 170 -3 166 -7z m461 -9 c-3 -3 -12 -4
-19 -1 -8 3 -5 6 6 6 11 1 17 -2 13 -5z"/>
<path d="M6098 8163 c12 -2 32 -2 45 0 12 2 2 4 -23 4 -25 0 -35 -2 -22 -4z"/>
<path d="M6018 8153 c12 -2 30 -2 40 0 9 3 -1 5 -23 4 -22 0 -30 -2 -17 -4z"/>
<path d="M6430 8128 c0 -7 11 -14 25 -14 15 -1 25 3 25 12 0 8 -10 14 -25 14
-14 0 -25 -6 -25 -12z"/>
<path d="M5649 8048 l-22 -33 29 27 c16 14 40 28 54 31 21 4 20 4 -7 6 -25 1
-36 -6 -54 -31z"/>
<path d="M5425 8031 c-3 -5 -1 -12 5 -16 5 -3 10 1 10 9 0 18 -6 21 -15 7z"/>
<path d="M5621 7994 c0 -11 3 -14 6 -6 3 7 2 16 -1 19 -3 4 -6 -2 -5 -13z"/>
<path d="M2647 7968 c-9 -7 -26 -35 -37 -63 -29 -68 -73 -112 -148 -146 -100
-45 -105 -108 -12 -158 106 -56 120 -70 155 -146 37 -80 57 -95 105 -75 20 8
35 28 53 68 31 73 67 108 144 143 63 28 83 50 83 92 0 31 -22 50 -90 80 -71
32 -106 68 -140 143 -15 34 -35 64 -45 68 -26 9 -49 7 -68 -6z"/>
<path d="M5311 7962 c-17 -31 -13 -40 5 -14 9 13 14 26 11 29 -3 2 -10 -4 -16
-15z"/>
<path d="M5351 7944 c0 -11 3 -14 6 -6 3 7 2 16 -1 19 -3 4 -6 -2 -5 -13z"/>
<path d="M5611 7944 c0 -11 3 -14 6 -6 3 7 2 16 -1 19 -3 4 -6 -2 -5 -13z"/>
<path d="M3100 7908 c-23 -25 -25 -55 -7 -80 15 -19 122 -34 110 -15 -4 6 12
8 48 3 30 -3 124 -9 209 -11 117 -4 149 -3 130 6 -31 13 -160 28 -154 17 3 -4
-32 -7 -78 -7 -69 2 -76 3 -43 10 28 5 15 6 -40 3 l-80 -4 40 19 40 20 -30 2
c-16 1 -36 2 -44 2 -10 -1 -10 2 -2 10 8 8 90 14 244 19 205 6 234 5 249 -9
10 -9 18 -13 18 -8 0 4 -10 16 -22 26 -19 18 -42 19 -294 19 -268 0 -274 0
-294 -22z m64 -43 c-4 -8 -17 -15 -31 -15 -14 0 -22 -4 -18 -10 4 -6 14 -8 23
-6 10 3 24 1 32 -4 11 -7 6 -10 -21 -10 -40 0 -58 22 -38 46 16 20 60 19 53
-1z"/>
<path d="M5291 7889 c-6 -18 -10 -59 -10 -93 l2 -61 7 65 c4 36 11 77 15 93
10 37 -1 34 -14 -4z"/>
<path d="M5612 7895 c0 -16 2 -22 5 -12 2 9 2 23 0 30 -3 6 -5 -1 -5 -18z"/>
<path d="M3686 7836 c-5 -19 -11 -23 -33 -19 l-28 3 25 -10 c21 -9 27 -7 42
12 20 26 23 38 9 38 -5 0 -12 -11 -15 -24z"/>
<path d="M5588 7623 c7 -3 16 -2 19 1 4 3 -2 6 -13 5 -11 0 -14 -3 -6 -6z"/>
<path d="M7489 7591 c-23 -24 -29 -38 -29 -73 0 -70 41 -117 103 -118 76 0
117 42 117 120 0 30 -7 45 -31 69 -26 26 -38 31 -81 31 -41 0 -54 -5 -79 -29z"/>
<path d="M2238 7454 c-34 -18 -48 -43 -48 -87 0 -71 69 -113 135 -81 74 35 71
146 -6 173 -40 14 -48 14 -81 -5z"/>
<path d="M7924 7450 c-32 -13 -64 -59 -64 -92 0 -44 27 -88 65 -104 69 -28
145 26 145 103 0 69 -80 120 -146 93z"/>
<path d="M3333 7316 c-106 -34 -197 -117 -233 -212 -20 -54 -20 -72 -20 -1317
0 -1090 2 -1271 15 -1320 18 -71 19 -64 -4 -70 -11 -3 -89 -98 -173 -212 -84
-115 -266 -360 -404 -545 l-251 -338 -8 -116 c-13 -217 10 -301 106 -391 46
-42 74 -59 125 -75 63 -19 91 -20 665 -20 l599 0 0 -169 c0 -122 -4 -173 -12
-183 -7 -8 -39 -41 -70 -75 -53 -56 -58 -66 -58 -107 0 -44 1 -46 109 -143 73
-66 110 -107 114 -126 10 -41 67 -94 110 -102 45 -9 85 6 121 44 78 81 7 233
-102 218 -34 -4 -42 0 -100 53 -34 32 -62 61 -62 65 0 4 26 36 59 72 l59 65
-6 194 -5 194 1914 2 1914 3 56 26 c76 36 133 90 166 157 26 54 28 66 31 215
3 115 0 167 -9 190 -8 18 -122 176 -254 352 -132 176 -312 417 -399 534 -88
118 -168 216 -178 219 -22 5 -22 -3 0 74 16 58 17 154 17 1328 l0 1265 -27 57
c-34 73 -103 142 -176 176 l-57 27 -1765 2 c-1440 1 -1773 -1 -1807 -11z
m3337 -188 c-120 -11 -142 -28 -37 -28 70 0 77 -2 77 -20 0 -12 -7 -20 -16
-20 -8 0 -22 -6 -29 -14 -10 -9 -26 -11 -59 -6 -25 4 -46 3 -46 -1 0 -4 -17
-10 -37 -12 -21 -2 -9 -3 27 -1 59 2 61 2 26 -7 -45 -11 -154 -7 -175 5 -10 6
-12 5 -7 -2 5 -9 -63 -12 -256 -15 -190 -2 -141 -3 172 -5 343 -2 439 -5 453
-16 16 -12 17 -82 17 -1220 0 -802 3 -1205 10 -1201 6 3 10 22 10 41 0 46 18
44 22 -3 3 -34 0 -39 -32 -55 -32 -17 -112 -18 -1245 -20 -665 -2 -1127 -4
-1025 -5 624 -10 1312 -24 1355 -27 46 -4 47 -4 10 3 l-40 8 35 1 c19 1 41 -2
48 -7 26 -16 -18 -21 -216 -23 l-197 -2 185 -7 c102 -3 186 -7 188 -8 2 0 0
-5 -3 -11 -3 -5 -33 -10 -66 -10 -33 0 -59 4 -59 10 0 6 -18 10 -40 10 -31 0
-40 -4 -40 -17 0 -14 -12 -15 -119 -10 -66 4 -122 3 -125 -1 -5 -8 396 -18
602 -15 68 1 122 -3 122 -8 0 -5 -539 -9 -1347 -9 -1335 0 -1348 1 -1393 21
-56 25 -86 53 -113 104 l-22 40 1 1211 c2 1209 2 1210 23 1252 21 42 67 83
111 101 16 6 616 9 1685 9 1050 0 1625 -4 1565 -10z m145 -4 c13 -5 14 -9 3
-15 -11 -7 -10 -11 2 -19 8 -5 22 -10 30 -10 13 0 13 1 0 10 -8 5 -12 11 -9
14 3 3 21 -8 40 -24 19 -16 30 -29 25 -30 -5 0 -15 8 -22 17 -7 10 -16 14 -20
10 -5 -4 -3 -12 5 -16 10 -6 9 -10 -5 -15 -9 -3 -19 -4 -22 -1 -3 3 1 5 9 5 8
0 -1 10 -19 22 -19 11 -31 26 -28 34 3 7 -4 14 -17 17 -14 3 -16 5 -5 6 9 0
24 -2 33 -5z m95 -95 c0 -5 -4 -7 -10 -4 -5 3 -10 -2 -10 -11 0 -10 -3 -15 -6
-11 -9 9 3 37 16 37 5 0 10 -5 10 -11z m-120 -24 c6 3 10 1 10 -4 0 -6 -4 -11
-10 -11 -17 0 -60 23 -60 33 0 5 11 2 25 -7 14 -9 30 -14 35 -11z m7 19 c-3
-3 -12 -4 -19 -1 -8 3 -5 6 6 6 11 1 17 -2 13 -5z m144 -30 c5 -15 8 -29 5
-31 -2 -2 -8 10 -14 26 -13 38 -5 41 9 5z m-7 -40 l26 -47 0 -1158 c0 -761 -3
-1160 -10 -1164 -5 -3 -10 -16 -10 -28 0 -12 -7 -30 -14 -40 -14 -18 -15 -17
-21 4 -6 17 -9 19 -16 8 -5 -8 -9 -18 -9 -24 0 -5 5 -3 10 5 9 13 10 13 10 -1
0 -8 -6 -22 -12 -31 -15 -19 -78 -58 -93 -58 -5 0 7 10 28 23 21 13 34 27 30
32 -4 4 0 5 10 2 20 -7 24 17 5 30 -16 10 -18 133 -3 133 6 0 9 31 7 80 -3 75
-2 80 17 80 19 0 21 6 21 59 0 32 3 86 6 120 5 43 3 61 -5 61 -6 0 -11 -17
-11 -39 0 -22 -3 -42 -7 -44 -5 -3 -6 15 -4 39 2 35 0 44 -13 44 -14 0 -16 17
-16 120 l0 120 -28 0 -29 0 0 120 0 120 29 0 c26 0 28 -3 28 -40 0 -22 -4 -40
-10 -40 -5 0 -10 -18 -10 -40 0 -22 4 -40 9 -40 15 0 17 81 13 450 -3 195 -2
352 2 349 4 -4 7 -113 8 -243 0 -130 4 -236 9 -236 4 0 9 19 11 43 2 23 2 -49
1 -160 -1 -118 3 -203 8 -203 5 0 9 48 9 108 0 59 5 219 11 357 9 188 9 250 0
253 -14 5 -15 722 -1 722 5 0 11 -19 13 -42 2 -24 4 4 4 62 0 112 -4 133 -18
124 -5 -3 -9 -2 -8 3 1 4 1 17 0 28 -1 17 -3 18 -11 5 -5 -8 -10 -10 -10 -4 0
10 9 24 16 24 1 0 14 -21 28 -46z m-106 -222 c2 -7 -3 -12 -12 -12 -9 0 -16 7
-16 16 0 17 22 14 28 -4z m10 -184 c-1 -96 -3 -127 -5 -75 -3 68 -7 87 -18 87
-11 0 -15 12 -15 40 0 29 4 40 15 40 10 0 15 11 15 35 0 19 2 35 5 35 3 0 4
-73 3 -162z m49 -210 c-2 -13 -4 -3 -4 22 0 25 2 35 4 23 2 -13 2 -33 0 -45z
m-55 -58 c3 -33 0 -40 -14 -40 -14 0 -18 8 -18 40 0 28 4 40 14 40 9 0 15 -14
18 -40z m72 -322 c5 -80 3 -118 -4 -118 -6 0 -10 44 -10 122 0 67 2 119 4 117
2 -2 6 -57 10 -121z m-70 -19 c3 -34 5 -128 4 -208 -1 -80 -3 -125 -5 -98 -2
26 -8 47 -14 47 -5 0 -9 36 -9 80 0 47 4 80 10 80 17 0 12 77 -5 84 -20 7 -21
76 -1 76 9 0 15 -20 20 -61z m-39 -1437 c-3 -3 -11 0 -18 7 -9 10 -8 11 6 5
10 -3 15 -9 12 -12z m-688 2 c-3 -3 -12 -4 -19 -1 -8 3 -5 6 6 6 11 1 17 -2
13 -5z m143 -4 c11 -8 7 -9 -15 -4 -37 8 -45 14 -19 14 10 0 26 -5 34 -10z
m-297 -37 c-7 -2 -19 -2 -25 0 -7 3 -2 5 12 5 14 0 19 -2 13 -5z m877 3 c0 -2
-7 -7 -16 -10 -8 -3 -12 -2 -9 4 6 10 25 14 25 6z m-877 -33 c-7 -2 -19 -2
-25 0 -7 3 -2 5 12 5 14 0 19 -2 13 -5z m530 -30 c-46 -2 -120 -2 -165 0 -46
1 -9 3 82 3 91 0 128 -2 83 -3z m154 1 c-3 -3 -12 -4 -19 -1 -8 3 -5 6 6 6 11
1 17 -2 13 -5z m-3358 -151 l56 -28 558 -3 c353 -1 557 -6 557 -12 0 -6 -12
-32 -27 -60 l-28 -49 -540 -3 -540 -3 -45 -49 c-80 -87 -118 -81 508 -84 303
-1 552 -5 552 -8 0 -3 -12 -28 -27 -55 l-28 -49 -570 0 -571 0 -40 -38 c-23
-21 -46 -47 -52 -59 -25 -47 -21 -47 584 -44 310 1 564 -1 563 -6 0 -4 -13
-28 -28 -53 l-27 -45 -586 -3 -586 -2 -36 -40 c-41 -46 -44 -62 -16 -90 20
-20 33 -20 580 -20 308 0 560 -3 560 -6 0 -5 -86 -152 -95 -162 -1 -1 -216 -3
-476 -4 -465 -2 -469 -2 -184 -8 160 -4 350 -8 423 -9 72 0 132 -4 132 -9 0
-4 -19 -7 -42 -6 -36 1 -37 0 -8 -3 19 -3 41 -9 48 -15 10 -9 14 -6 18 9 7 27
42 37 46 14 4 -17 -31 -81 -45 -81 -5 0 -6 4 -3 9 3 5 -6 11 -19 14 -14 2 -28
1 -30 -4 -3 -4 5 -10 17 -12 13 -2 -266 -5 -620 -6 -522 -1 -649 2 -675 13
-62 25 -116 116 -69 116 19 0 131 142 418 530 92 124 200 269 241 323 40 54
76 104 80 112 7 20 7 20 72 -12z m4030 -363 c349 -464 398 -527 444 -572 l38
-38 -758 0 -758 0 -47 74 c-26 41 -49 79 -50 85 -2 8 154 12 568 14 547 2 573
3 593 21 29 26 27 40 -15 86 l-36 40 -604 0 -604 0 -25 41 c-15 22 -29 47 -32
55 -5 12 74 14 582 14 599 -1 604 -1 605 34 0 5 -22 31 -49 57 l-48 49 -594 0
-595 0 -31 55 -32 55 577 2 c652 3 610 -3 534 84 l-44 49 -566 1 -567 1 -32
54 c-18 29 -33 57 -33 61 0 4 264 9 588 10 l587 3 55 26 c41 20 58 24 65 15 6
-7 133 -176 284 -376z m-1751 270 l33 -60 -496 -2 c-272 -2 -495 0 -495 5 0 4
14 32 31 62 l31 55 431 0 432 0 33 -60z m130 -251 c18 -28 32 -53 29 -55 -2
-2 -283 -3 -625 -2 l-620 3 31 52 32 52 560 1 560 0 33 -51z m154 -256 l30
-53 -772 0 -772 0 14 23 c8 12 23 37 32 55 l17 32 711 -2 711 -3 29 -52z m141
-275 c43 -67 45 -74 29 -87 -15 -12 -15 -12 6 -6 12 3 22 3 22 -2 0 -4 -410
-9 -910 -11 -664 -2 -910 0 -910 8 0 11 22 53 70 133 l22 37 813 0 813 0 45
-72z m-1375 -135 c-21 -2 -57 -2 -80 0 -24 2 -7 4 37 4 44 0 63 -2 43 -4z
m235 0 c-24 -2 -62 -2 -85 0 -24 2 -5 4 42 4 47 0 66 -2 43 -4z m-667 -43 c8
0 12 -4 9 -10 -4 -6 20 -9 67 -8 63 1 67 2 33 8 -33 6 -32 7 10 3 28 -3 280
-8 560 -12 l510 -7 -618 -2 c-486 -1 -617 1 -613 11 3 6 9 21 13 32 6 18 8 18
11 3 2 -10 10 -18 18 -18z m207 13 c-13 -2 -33 -2 -45 0 -13 2 -3 4 22 4 25 0
35 -2 23 -4z m320 0 c-13 -2 -33 -2 -45 0 -13 2 -3 4 22 4 25 0 35 -2 23 -4z
m-40 -20 c-35 -2 -91 -2 -125 0 -35 2 -7 3 62 3 69 0 97 -1 63 -3z m920 -20
c-13 -2 -33 -2 -45 0 -13 2 -3 4 22 4 25 0 35 -2 23 -4z m1180 0 c-24 -2 -62
-2 -85 0 -24 2 -5 4 42 4 47 0 66 -2 43 -4z m460 0 c-35 -2 -91 -2 -125 0 -35
2 -7 3 62 3 69 0 97 -1 63 -3z m200 0 c-13 -2 -33 -2 -45 0 -13 2 -3 4 22 4
25 0 35 -2 23 -4z m-4928 -162 c36 -15 269 -16 2630 -16 l2590 0 49 23 49 22
-6 -41 c-7 -51 -36 -83 -96 -106 -44 -17 -178 -18 -2596 -18 l-2550 0 -47 22
c-51 23 -76 54 -88 109 -7 31 -6 35 8 28 10 -4 35 -14 57 -23z"/>
<path d="M3679 6713 c-38 -6 -61 -35 -66 -87 -5 -40 -2 -48 25 -76 l30 -30
211 0 210 0 10 -52 c6 -29 40 -204 76 -388 107 -547 135 -673 151 -697 l14
-23 774 0 c734 0 774 1 789 18 9 10 68 169 131 353 63 184 158 458 210 609 53
151 96 287 96 303 0 15 -9 36 -20 47 -19 19 -33 20 -350 20 -379 0 -350 9
-350 -104 0 -100 -8 -97 251 -94 121 2 219 1 219 -2 0 -3 -10 -32 -23 -65
l-23 -59 -199 0 c-200 -1 -200 -1 -203 -23 -2 -13 2 -23 8 -23 16 0 9 -121 -7
-138 -15 -16 -17 -70 -3 -106 l10 -26 140 0 c77 0 140 -4 140 -8 0 -5 -7 -30
-16 -56 -18 -53 -42 -68 -89 -55 -36 11 -156 12 -172 1 -12 -7 -24 -265 -13
-276 3 -3 38 -6 78 -7 81 -2 85 -7 54 -69 -17 -34 -19 -35 -73 -33 -48 3 -59
-1 -79 -22 -29 -31 -66 -32 -96 -4 -23 21 -30 22 -306 20 -266 -2 -283 -3
-300 -21 -24 -26 -60 -25 -83 0 -16 18 -33 20 -183 22 l-165 3 -57 284 -56
284 148 -5 c130 -4 151 -3 177 13 43 26 51 48 51 143 0 79 2 86 20 86 11 0 20
-5 20 -11 0 -5 5 -7 10 -4 19 12 10 24 -22 27 -33 3 -33 3 -36 66 -3 60 -2 62
22 62 53 0 56 6 56 100 0 71 -3 89 -16 94 -9 3 -66 6 -128 6 -154 0 -146 12
-146 -218 l0 -182 -94 0 c-82 0 -95 2 -100 18 -5 16 -46 238 -61 324 -11 67
-17 68 -310 67 -143 -1 -272 -4 -286 -6z m1998 -349 c-3 -3 -12 -4 -19 -1 -8
3 -5 6 6 6 11 1 17 -2 13 -5z m328 -3 c-3 -5 -1 -12 5 -16 5 -3 10 2 10 11 0
10 2 15 5 12 8 -8 -5 -59 -14 -54 -3 2 -17 -7 -31 -20 -13 -13 -19 -24 -13
-24 6 0 13 6 16 13 2 6 8 9 12 5 4 -4 4 -15 0 -25 -5 -10 -10 -27 -12 -37 -2
-11 -4 -20 -6 -21 -1 0 -32 1 -69 3 -66 4 -96 21 -40 23 l27 1 -30 8 c-30 8
-30 8 8 9 23 1 36 -3 32 -9 -3 -5 -1 -10 5 -10 26 0 1 25 -31 31 -32 6 -32 7
6 4 46 -2 65 12 65 49 0 17 9 30 28 40 32 18 35 19 27 7z m-302 -18 c-7 -2
-19 -2 -25 0 -7 3 -2 5 12 5 14 0 19 -2 13 -5z m-26 -105 c-3 -8 -6 -5 -6 6
-1 11 2 17 5 13 3 -3 4 -12 1 -19z m66 -35 c-13 -2 -33 -2 -45 0 -13 2 -3 4
22 4 25 0 35 -2 23 -4z m126 -318 c0 -5 -4 -3 -9 5 -5 8 -9 22 -9 30 0 16 17
-16 18 -35z m-24 -30 c-2 -16 -4 -36 -4 -44 -1 -7 -7 -11 -15 -8 -7 3 -18 1
-24 -5 -7 -7 -10 2 -8 30 4 49 11 61 36 59 16 -1 19 -7 15 -32z m-75 -45 c0
-5 -8 -10 -17 -10 -15 0 -16 2 -3 10 19 12 20 12 20 0z"/>
<path d="M4935 6693 c-14 -14 -17 -30 -13 -88 3 -40 8 -77 12 -83 10 -17 557
-17 574 0 16 16 16 160 0 176 -9 9 -86 12 -284 12 -243 0 -274 -2 -289 -17z"/>
<path d="M4947 6383 c-4 -3 -7 -9 -7 -12 0 -3 102 -5 226 -3 124 1 231 -1 238
-6 20 -16 48 -23 40 -11 -4 7 -2 9 7 5 8 -3 22 -9 32 -12 15 -6 17 -16 15 -68
l-3 -61 -155 -8 c-85 -4 -210 -6 -277 -5 -80 2 -124 -1 -127 -8 -9 -25 1 -106
14 -115 9 -6 122 -8 285 -7 l270 3 3 153 c1 83 1 152 0 153 -13 5 -556 7 -561
2z"/>
<path d="M5643 6290 c0 -25 2 -35 4 -22 2 12 2 32 0 45 -2 12 -4 2 -4 -23z"/>
<path d="M4761 6204 c0 -11 3 -14 6 -6 3 7 2 16 -1 19 -3 4 -6 -2 -5 -13z"/>
<path d="M4630 5951 c0 -16 14 -20 92 -25 37 -2 72 -7 78 -11 5 -3 10 3 10 14
0 12 -3 21 -7 21 -5 1 -45 3 -90 6 -58 4 -83 2 -83 -5z"/>
<path d="M4946 5948 c-8 -25 -15 -220 -9 -249 l6 -29 281 2 281 3 0 140 0 140
-278 3 c-217 2 -278 0 -281 -10z m361 -8 c92 0 142 -4 138 -10 -3 -6 1 -7 9
-4 9 3 13 10 10 15 -6 11 -1 11 20 3 12 -5 16 -21 16 -75 0 -59 -3 -69 -17
-69 -10 0 -133 -1 -273 -2 l-255 -3 0 72 0 72 45 4 c25 3 72 3 104 1 32 -2
124 -4 203 -4z"/>
<path d="M4642 5900 c0 -14 2 -19 5 -12 2 6 2 18 0 25 -3 6 -5 1 -5 -13z"/>
<path d="M4785 5800 c-11 -5 -46 -9 -78 -9 -54 -1 -57 -2 -53 -23 3 -13 8 -40
11 -60 l6 -38 69 0 70 0 0 70 c0 39 -1 70 -2 69 -2 0 -12 -4 -23 -9z"/>
<path d="M4462 5231 c-145 -50 -221 -197 -178 -346 32 -110 148 -195 266 -195
141 0 264 103 277 235 l6 55 303 0 304 0 0 -31 c0 -64 23 -113 81 -171 45 -45
68 -60 114 -73 189 -55 364 73 365 265 0 84 -31 151 -95 208 -99 87 -239 94
-351 18 l-39 -26 -378 0 -377 0 -39 26 c-47 31 -121 54 -170 54 -20 -1 -60 -9
-89 -19z m165 -196 c48 -56 18 -148 -53 -161 -47 -9 -89 11 -108 51 -19 40
-20 62 -2 94 32 57 121 66 163 16z m1149 17 c70 -56 51 -162 -32 -178 -64 -12
-124 34 -124 96 0 28 26 77 47 89 28 16 86 12 109 -7z"/>
<path d="M6587 4937 c-3 -9 -2 -19 4 -22 14 -9 50 5 43 16 -3 6 -12 8 -19 5
-8 -3 -15 0 -18 7 -2 6 -6 4 -10 -6z"/>
<path d="M3595 4929 c-10 -15 -2 -19 23 -12 12 3 19 9 16 14 -7 12 -31 11 -39
-2z"/>
<path d="M3587 4853 c-13 -12 -7 -33 8 -33 8 0 15 9 15 20 0 20 -11 26 -23 13z"/>
<path d="M3620 4839 c0 -11 4 -18 9 -15 5 4 7 -3 4 -14 -3 -11 0 -20 6 -20 12
0 15 29 5 54 -9 23 -24 20 -24 -5z"/>
<path d="M6598 4852 c-16 -2 -28 -8 -28 -13 0 -8 48 -2 59 7 8 7 -4 9 -31 6z"/>
<path d="M6588 4819 c-20 -11 -25 -73 -8 -84 6 -4 10 9 10 32 0 33 4 41 28 50
21 9 23 11 7 12 -11 0 -28 -4 -37 -10z"/>
<path d="M3587 4804 c-10 -11 -9 -74 2 -74 6 0 12 3 15 8 7 12 -8 74 -17 66z"/>
<path d="M6622 4790 c0 -14 2 -19 5 -12 2 6 2 18 0 25 -3 6 -5 1 -5 -13z"/>
<path d="M3611 4784 c0 -11 3 -14 6 -6 3 7 2 16 -1 19 -3 4 -6 -2 -5 -13z"/>
<path d="M6602 4780 c0 -14 2 -19 5 -12 2 6 2 18 0 25 -3 6 -5 1 -5 -13z"/>
<path d="M3631 4754 c0 -11 3 -14 6 -6 3 7 2 16 -1 19 -3 4 -6 -2 -5 -13z"/>
<path d="M3700 4736 c0 -9 40 -13 46 -5 3 5 -6 9 -20 9 -14 0 -26 -2 -26 -4z"/>
<path d="M3824 4710 c0 -13 4 -16 10 -10 7 7 7 13 0 20 -6 6 -10 3 -10 -10z"/>
<path d="M6393 4710 c-2 -24 12 -27 21 -4 8 22 8 24 -7 24 -7 0 -13 -9 -14
-20z"/>
<path d="M6520 4719 c0 -7 10 -9 25 -7 13 3 22 1 19 -3 -3 -5 0 -9 6 -9 7 0
10 6 8 13 -6 16 -58 22 -58 6z"/>
<path d="M6605 4702 c-4 -18 -10 -22 -23 -17 -9 4 -26 9 -37 12 -15 4 -17 2
-6 -5 11 -8 9 -11 -10 -15 -13 -2 -1 -5 27 -6 49 -1 84 16 67 32 -3 4 -1 7 5
7 7 0 12 4 12 8 0 20 -29 7 -35 -16z"/>
<path d="M5558 4493 c23 -2 61 -2 85 0 23 2 4 4 -43 4 -47 0 -66 -2 -42 -4z"/>
<path d="M6889 5164 c1 -24 7 -44 12 -44 14 0 11 77 -3 83 -10 3 -12 -7 -9
-39z"/>
<path d="M6883 4755 c0 -22 2 -30 4 -17 2 12 2 30 0 40 -3 9 -5 -1 -4 -23z"/>
<path d="M6880 4614 c0 -8 5 -12 10 -9 6 3 10 10 10 16 0 5 -4 9 -10 9 -5 0
-10 -7 -10 -16z"/>
<path d="M6907 4571 c-2 -10 -1 -24 3 -30 4 -7 7 1 8 18 1 35 -3 40 -11 12z"/>
<path d="M3880 3225 c-6 -15 -8 -30 -6 -33 3 -3 10 8 16 23 6 15 8 30 6 33 -3
3 -10 -8 -16 -23z"/>
<path d="M3458 3183 c12 -2 32 -2 45 0 12 2 2 4 -23 4 -25 0 -35 -2 -22 -4z"/>
<path d="M3618 3183 c12 -2 32 -2 45 0 12 2 2 4 -23 4 -25 0 -35 -2 -22 -4z"/>
<path d="M5920 3439 c0 -3 11 -20 25 -39 14 -19 25 -30 25 -24 0 10 -49 73
-50 63z"/>
<path d="M2402 7098 c-5 -7 -19 -32 -30 -54 -17 -34 -34 -48 -88 -75 -76 -38
-90 -54 -80 -93 5 -21 20 -33 70 -56 57 -25 68 -35 98 -87 29 -49 39 -58 66
-61 28 -3 33 1 56 46 30 58 41 68 120 107 57 28 61 32 61 65 0 33 -4 37 -61
65 -79 39 -91 49 -120 107 -21 40 -29 48 -53 48 -16 0 -33 -6 -39 -12z"/>
<path d="M8439 6507 c-90 -69 -7 -217 94 -166 93 47 65 179 -37 179 -23 0 -48
-6 -57 -13z"/>
<path d="M7825 4911 c3 -6 -3 -15 -12 -21 -15 -9 -14 -9 8 -5 20 5 28 1 37
-17 l12 -23 -6 25 c-4 14 -11 31 -16 38 -12 14 -32 17 -23 3z"/>
<path d="M7880 4851 c0 -6 4 -13 10 -16 6 -3 7 1 4 9 -7 18 -14 21 -14 7z"/>
<path d="M7461 4824 c0 -11 3 -14 6 -6 3 7 2 16 -1 19 -3 4 -6 -2 -5 -13z"/>
<path d="M7911 4784 c0 -11 3 -14 6 -6 3 7 2 16 -1 19 -3 4 -6 -2 -5 -13z"/>
<path d="M7461 4774 c0 -11 3 -14 6 -6 3 7 2 16 -1 19 -3 4 -6 -2 -5 -13z"/>
<path d="M7608 4633 c46 -2 118 -2 160 0 42 1 5 3 -83 3 -88 0 -123 -2 -77 -3z"/>
<path d="M1695 4470 c3 -6 1 -10 -6 -10 -7 0 -10 -3 -6 -6 3 -3 13 -2 22 4 16
8 16 9 1 15 -10 4 -15 3 -11 -3z"/>
<path d="M2376 4471 c-4 -7 -5 -15 -2 -18 9 -9 19 4 14 18 -4 11 -6 11 -12 0z"/>
<path d="M2300 4466 c0 -2 7 -17 15 -32 l15 -29 -3 33 c-1 18 -8 32 -14 32 -7
0 -13 -2 -13 -4z"/>
<path d="M2340 4454 c0 -17 17 -36 24 -26 3 5 -1 15 -9 22 -8 7 -15 9 -15 4z"/>
<path d="M2274 4433 c-11 -24 -12 -73 -1 -66 4 2 5 14 2 24 -4 11 -1 27 6 35
6 8 10 17 7 20 -3 3 -9 -3 -14 -13z"/>
<path d="M1474 4395 c-3 -8 -4 -20 -2 -27 3 -7 7 -1 10 15 6 29 1 36 -8 12z"/>
<path d="M2330 4400 c-9 -6 -10 -10 -3 -10 6 0 15 5 18 10 8 12 4 12 -15 0z"/>
<path d="M2324 4325 c-1 -44 1 -52 6 -29 4 17 10 36 14 42 4 7 3 12 -3 12 -5
0 -11 8 -13 18 -2 9 -4 -10 -4 -43z"/>
<path d="M1650 4355 c0 -8 2 -15 4 -15 2 0 6 7 10 15 3 8 1 15 -4 15 -6 0 -10
-7 -10 -15z"/>
<path d="M2365 4350 c-4 -12 -5 -24 -2 -27 3 -2 8 5 12 17 4 12 5 24 2 27 -3
2 -8 -5 -12 -17z"/>
<path d="M1866 4307 c-9 -18 -12 -26 -5 -19 22 21 33 13 13 -10 -17 -19 -17
-21 -1 -15 19 7 24 -9 5 -16 -7 -3 -8 -6 -3 -6 26 -2 36 16 25 43 -5 15 -8 31
-5 36 3 5 2 11 -3 14 -4 2 -16 -10 -26 -27z"/>
<path d="M1483 4288 c13 -31 37 -50 37 -28 0 6 -4 9 -9 6 -5 -3 -14 8 -20 24
-5 17 -12 30 -16 30 -3 0 1 -14 8 -32z"/>
<path d="M2130 4316 c0 -2 7 -9 15 -16 12 -10 15 -10 15 4 0 9 -7 16 -15 16
-8 0 -15 -2 -15 -4z"/>
<path d="M1685 4271 c-9 -16 16 -25 78 -27 41 -1 56 1 46 8 -10 7 -6 8 13 4
20 -5 26 -3 22 7 -5 15 -61 11 -82 -6 -7 -5 -15 -7 -19 -3 -3 3 0 6 8 7 18 1
-20 17 -43 18 -9 1 -19 -3 -23 -8z m35 -11 c0 -5 -7 -7 -15 -4 -8 4 -15 8 -15
10 0 2 7 4 15 4 8 0 15 -4 15 -10z"/>
<path d="M2080 4255 c0 -8 7 -15 16 -15 14 0 14 3 4 15 -7 8 -14 15 -16 15 -2
0 -4 -7 -4 -15z"/>
<path d="M2330 4250 c0 -5 7 -10 15 -10 8 0 15 5 15 10 0 6 -7 10 -15 10 -8 0
-15 -4 -15 -10z"/>
<path d="M2726 4232 c-3 -5 1 -9 9 -9 8 0 12 4 9 9 -3 4 -7 8 -9 8 -2 0 -6 -4
-9 -8z"/>
<path d="M1550 4210 c-8 -5 -12 -11 -10 -14 3 -2 14 2 24 10 22 15 10 19 -14
4z"/>
<path d="M1570 4190 c-9 -6 -10 -10 -3 -10 6 0 15 5 18 10 8 12 4 12 -15 0z"/>
<path d="M2018 4153 c12 -2 30 -2 40 0 9 3 -1 5 -23 4 -22 0 -30 -2 -17 -4z"/>
<path d="M2538 4153 c7 -3 16 -2 19 1 4 3 -2 6 -13 5 -11 0 -14 -3 -6 -6z"/>
<path d="M1890 4001 c0 -5 12 -14 28 -19 36 -14 85 -62 113 -112 l23 -40 225
4 c124 3 229 5 232 5 6 1 104 127 122 158 7 11 -58 13 -368 13 -216 0 -375 -4
-375 -9z"/>
<path d="M7620 3997 c0 -6 26 -46 58 -87 l58 -75 246 3 245 3 34 -30 c27 -25
33 -37 31 -65 -6 -83 54 -146 137 -146 74 0 141 61 141 129 0 63 -55 129 -116
138 -30 4 -53 19 -99 63 -33 32 -70 63 -81 68 -32 17 -654 16 -654 -1z"/>
<path d="M1770 3970 c-9 -6 -10 -10 -3 -10 6 0 15 5 18 10 8 12 4 12 -15 0z"/>
<path d="M1842 3884 c-38 -26 -62 -85 -52 -128 14 -64 58 -96 133 -96 54 0
100 39 116 97 15 54 16 53 -35 100 -40 38 -51 43 -93 43 -26 0 -56 -7 -69 -16z"/>
<path d="M5023 2611 c-212 -73 -273 -334 -116 -495 67 -68 120 -91 213 -91 62
0 85 5 132 28 69 34 132 102 155 169 l18 48 1005 0 1005 -1 40 -24 c73 -45
161 -25 205 47 24 39 25 76 6 123 -35 83 -157 104 -227 39 l-25 -24 -1010 0
-1009 0 -30 51 c-73 124 -223 178 -362 130z m162 -160 c36 -21 55 -54 55 -98
0 -18 5 -33 10 -33 6 0 10 -5 10 -11 0 -5 -4 -8 -9 -5 -5 3 -14 -1 -21 -9 -11
-13 -10 -14 4 -9 9 3 16 1 16 -5 0 -6 -4 -11 -10 -11 -5 0 -10 -7 -10 -14 0
-21 -65 -68 -92 -68 -85 -1 -148 52 -156 131 -3 39 0 57 17 84 46 75 111 91
186 48z"/>
<path d="M3252 2597 c-77 -29 -133 -123 -117 -198 10 -49 50 -106 87 -126 52
-27 127 -23 177 10 139 92 90 300 -75 321 -22 3 -54 0 -72 -7z"/>
<path d="M2667 2460 c-82 -65 -37 -200 67 -200 25 0 45 9 71 31 29 26 35 38
35 71 0 45 -22 93 -49 108 -33 17 -96 12 -124 -10z"/>
<path d="M4389 2297 c-66 -44 -86 -130 -44 -193 23 -36 97 -67 138 -58 72 15
117 71 117 144 0 105 -122 167 -211 107z"/>
<path d="M5828 2091 c-39 -19 -42 -73 -6 -104 20 -16 50 -17 423 -15 380 3
404 4 424 22 26 24 27 40 2 24 -11 -7 -18 -15 -15 -19 2 -4 -17 -10 -43 -14
-31 -4 -49 -3 -51 4 -2 6 -15 11 -29 11 -13 0 -31 7 -40 16 -14 14 -14 16 3
29 11 8 31 15 45 15 15 0 40 7 55 15 32 16 54 19 54 7 0 -4 9 -13 20 -20 23
-14 25 -5 5 22 -13 17 -37 18 -416 20 -323 1 -408 -2 -431 -13z m725 -18 c-7
-2 -19 -2 -25 0 -7 3 -2 5 12 5 14 0 19 -2 13 -5z m-473 -31 c0 -4 -18 -6 -40
-4 -22 2 -40 6 -40 8 0 2 18 4 40 4 22 0 40 -3 40 -8z m63 -49 c-13 -2 -33 -2
-45 0 -13 2 -3 4 22 4 25 0 35 -2 23 -4z"/>
<path d="M5465 1999 c-41 -11 -91 -62 -105 -105 -24 -72 14 -154 86 -185 82
-37 170 -3 206 77 34 79 2 166 -76 203 -45 23 -64 24 -111 10z"/>
<path d="M4736 1929 c-81 -96 37 -224 132 -144 75 63 33 175 -64 175 -35 0
-47 -5 -68 -31z"/>
</g>
</svg>
