<?xml version="1.0" standalone="no"?>
<!DOCTYPE svg PUBLIC "-//W3C//DTD SVG 20010904//EN"
 "http://www.w3.org/TR/2001/REC-SVG-20010904/DTD/svg10.dtd">
<svg version="1.0" xmlns="http://www.w3.org/2000/svg"
 width="500.000000pt" height="500.000000pt" viewBox="0 0 500.000000 500.000000"
 preserveAspectRatio="xMidYMid meet">

<g transform="translate(0.000000,500.000000) scale(0.100000,-0.100000)"
fill="#000000" stroke="none">
<path d="M2485 4170 c-14 -22 -43 -49 -65 -60 -53 -27 -53 -53 0 -80 21 -11
44 -29 50 -39 5 -11 10 -78 10 -150 l0 -131 -105 0 -106 0 4 168 c2 92 8 182
12 200 9 40 -15 72 -55 72 -40 0 -64 -32 -55 -72 4 -18 10 -108 12 -200 l4
-168 -298 0 -298 0 -60 -28 c-66 -31 -117 -83 -146 -146 -15 -34 -19 -67 -19
-193 l0 -153 -266 0 c-272 0 -304 -4 -304 -39 0 -38 20 -41 296 -43 l269 -3 0
-80 0 -80 -35 -3 c-53 -5 -106 15 -134 51 -15 17 -31 38 -37 45 -16 20 -27 14
-54 -28 -14 -22 -43 -49 -66 -60 -50 -26 -48 -46 6 -77 22 -12 47 -37 57 -57
24 -46 50 -47 77 -1 25 43 58 57 130 53 l56 -3 3 -62 3 -63 -223 0 c-206 0
-225 2 -248 20 -58 46 -140 8 -140 -65 0 -76 79 -110 138 -60 l30 25 221 0
221 0 0 -50 0 -50 -204 0 c-168 0 -206 -3 -216 -15 -7 -8 -10 -22 -6 -30 4
-13 35 -15 200 -15 107 0 201 -3 210 -6 11 -4 16 -19 16 -45 l0 -39 -230 0
c-194 0 -235 3 -264 17 -28 13 -40 14 -60 5 -34 -15 -43 -55 -21 -88 15 -23
21 -25 53 -19 21 4 145 8 277 9 l240 1 3 -39 c2 -21 -1 -43 -6 -48 -5 -5 -119
-9 -258 -9 -137 0 -240 -4 -230 -8 18 -7 18 -8 3 -14 -9 -3 -17 -11 -17 -17 0
-12 77 -14 84 -1 10 16 46 20 46 5 0 -8 -10 -14 -24 -14 -27 0 -59 -31 -38
-37 6 -3 12 -9 12 -14 0 -6 -4 -8 -8 -5 -5 3 -9 -10 -9 -29 0 -32 3 -35 29
-35 21 0 28 5 28 20 0 16 7 20 30 20 17 0 30 -5 30 -12 0 -9 2 -10 8 -2 4 7
16 13 27 16 14 2 20 11 20 31 0 16 8 34 18 42 18 13 18 13 0 18 -10 3 -1 5 20
6 35 1 38 -1 32 -21 -3 -13 -3 -18 2 -12 4 6 34 11 65 11 48 -1 56 -3 49 -16
-5 -9 -6 -22 -4 -29 3 -7 -3 -24 -12 -38 -14 -21 -23 -25 -50 -22 -39 4 -38
-7 1 -16 20 -5 33 -1 49 14 15 14 25 18 30 11 10 -16 42 -13 49 5 9 24 7 46
-4 39 -12 -8 -12 -8 -1 33 6 18 6 30 1 27 -5 -3 -11 -1 -14 4 -5 7 14 21 29
21 2 0 5 -35 7 -77 l3 -78 38 53 38 53 2 652 c2 615 3 654 21 687 26 49 55 79
101 103 40 22 42 22 905 25 629 2 880 0 919 -8 67 -15 143 -84 160 -145 7 -27
11 -248 11 -680 l0 -640 23 -28 22 -28 277 1 c180 0 279 -3 283 -10 3 -5 24
-10 45 -10 67 0 95 69 44 109 -31 25 -53 26 -80 6 -15 -12 -67 -14 -283 -15
l-264 0 7 46 c3 26 7 72 7 103 2 55 2 55 9 16 4 -22 8 -36 9 -31 0 6 7 2 14
-7 6 -9 27 -20 45 -23 28 -6 32 -4 32 15 0 14 6 21 19 21 23 0 30 16 24 57
l-5 32 -77 3 -76 3 -3 33 -3 32 119 0 120 0 12 -30 c38 -93 193 -107 257 -24
77 102 7 244 -121 244 -61 0 -104 -23 -135 -74 l-23 -36 -111 0 -112 0 0 145
0 145 214 0 c198 0 218 -2 258 -21 38 -18 48 -19 74 -9 74 31 81 122 12 158
-38 20 -73 14 -103 -18 l-28 -30 -210 0 -209 0 -6 76 c-4 42 -4 80 -1 85 3 5
65 9 137 9 118 0 136 3 171 23 86 48 109 161 52 248 -43 64 -86 79 -238 79
-126 0 -128 0 -128 23 -1 70 -89 174 -176 207 -50 18 -77 20 -304 20 l-250 0
0 74 c0 79 -10 92 -55 76 -17 -6 -21 -19 -25 -76 l-5 -69 -127 0 -128 0 0 122
c0 141 8 167 62 194 51 26 50 51 -4 81 -28 15 -49 37 -61 61 -9 20 -24 37 -32
37 -8 0 -26 -18 -40 -40z m1220 -800 c3 -5 15 -10 25 -10 10 0 21 -8 23 -17 4
-14 5 -13 6 4 1 16 -6 23 -26 26 -16 3 9 4 54 4 74 -2 116 -13 86 -24 -8 -3
-5 -11 8 -24 10 -10 19 -31 19 -45 0 -23 2 -25 15 -14 22 18 31 5 19 -28 -7
-19 -16 -27 -34 -27 -15 0 -24 -5 -22 -12 3 -16 -3 -16 -27 -1 -15 9 -25 9
-46 0 -14 -7 -57 -12 -95 -12 l-70 0 0 95 0 95 29 0 c17 0 33 -4 36 -10z m232
-55 c9 -24 -1 -27 -20 -5 -14 17 -15 20 -2 20 9 0 18 -7 22 -15z m118 -730
c27 -26 31 -54 14 -88 -23 -43 -61 -49 -103 -16 -34 27 -35 71 -1 104 31 32
59 32 90 0z m-3005 -375 c0 -5 -7 -10 -15 -10 -8 0 -15 5 -15 10 0 6 7 10 15
10 8 0 15 -4 15 -10z m155 0 c-3 -5 -10 -10 -16 -10 -5 0 -9 5 -9 10 0 6 7 10
16 10 8 0 12 -4 9 -10z m115 -69 c0 -6 -4 -13 -10 -16 -5 -3 -10 1 -10 9 0 9
5 16 10 16 6 0 10 -4 10 -9z"/>
<path d="M3745 3243 c-3 -14 -2 -30 4 -36 7 -7 8 -3 4 12 -3 12 -1 21 6 21 6
0 11 -7 11 -15 0 -8 7 -15 15 -15 20 0 19 3 -9 33 l-24 26 -7 -26z"/>
<path d="M3838 3223 c7 -3 16 -2 19 1 4 3 -2 6 -13 5 -11 0 -14 -3 -6 -6z"/>
<path d="M1957 4093 c-4 -3 -7 -45 -7 -92 -1 -60 -5 -92 -15 -105 -8 -11 -15
-30 -15 -42 0 -23 42 -64 65 -64 23 0 65 41 65 64 0 12 -7 31 -15 42 -10 13
-14 44 -15 96 0 42 -3 83 -6 92 -6 16 -45 22 -57 9z"/>
<path d="M3212 4035 c-30 -25 -31 -25 -258 -27 -126 -1 -182 -4 -124 -5 58 -2
109 -8 114 -13 7 -7 5 -10 -4 -11 -9 0 -7 -4 5 -9 13 -5 -5 -8 -53 -8 -41 0
-77 -3 -80 -7 -4 -3 78 -5 181 -4 184 2 188 2 213 -21 46 -44 129 -22 134 35
4 39 0 55 -20 75 -27 27 -72 25 -108 -5z m-56 -50 c14 -11 15 -14 3 -9 -10 3
-20 1 -24 -5 -7 -12 -52 -5 -72 11 -7 5 -14 5 -18 -2 -8 -13 -75 -13 -75 -1 0
10 40 16 126 19 23 1 48 -4 60 -13z"/>
<path d="M2694 3994 c-7 -3 -9 -14 -6 -26 3 -14 1 -19 -6 -14 -7 4 -12 3 -12
-3 0 -5 -9 -8 -20 -6 -24 5 -25 -1 -5 -21 8 -9 15 -11 15 -5 0 6 6 11 14 11 7
0 27 7 42 15 16 8 24 15 17 15 -7 0 -10 7 -7 15 5 11 2 13 -12 8 -12 -4 -15
-3 -10 5 8 13 7 13 -10 6z"/>
<path d="M1271 3852 c-11 -22 -35 -46 -60 -60 -51 -29 -56 -63 -12 -82 36 -14
66 -46 80 -82 16 -42 45 -36 73 15 14 25 37 49 57 59 19 9 38 21 43 26 18 18
-1 48 -40 65 -25 11 -46 31 -61 57 -29 52 -54 52 -80 2z"/>
<path d="M1517 3863 c-13 -13 -7 -42 11 -47 9 -3 40 -2 67 3 29 5 39 9 23 10
-58 2 -34 20 34 25 141 12 142 13 7 14 -75 1 -139 -1 -142 -5z m30 -20 c-9 -2
-14 -9 -11 -15 4 -7 2 -8 -4 -4 -20 12 -13 26 11 25 17 -1 18 -2 4 -6z"/>
<path d="M1693 3813 c9 -2 25 -2 35 0 9 3 1 5 -18 5 -19 0 -27 -2 -17 -5z"/>
<path d="M3655 3700 c-23 -25 -13 -67 20 -82 52 -23 100 46 59 86 -21 22 -57
20 -79 -4z"/>
<path d="M1089 3632 c-17 -14 -20 -25 -15 -45 11 -45 71 -47 82 -1 11 45 -31
74 -67 46z"/>
<path d="M3856 3624 c-19 -18 -20 -38 -6 -65 21 -38 90 -14 90 31 0 10 -7 26
-16 34 -8 9 -24 16 -34 16 -10 0 -26 -7 -34 -16z"/>
<path d="M1604 3561 c-48 -22 -81 -60 -93 -110 -12 -48 -13 -1171 -2 -1241 7
-41 6 -58 -3 -65 -7 -5 -66 -82 -131 -170 -65 -88 -152 -205 -194 -260 l-76
-100 0 -95 c0 -84 3 -99 24 -129 48 -67 70 -71 404 -71 l297 0 0 -85 c0 -83
-1 -86 -35 -124 -19 -21 -35 -46 -35 -54 0 -9 21 -35 46 -59 26 -24 57 -60 70
-80 20 -32 30 -38 58 -38 19 0 40 8 49 18 36 39 9 102 -43 102 -25 0 -80 45
-80 65 0 6 11 22 25 35 23 22 25 30 25 122 l0 98 943 2 944 3 37 29 c51 38 66
79 66 174 l0 79 -186 249 c-102 137 -197 260 -210 274 -21 23 -23 30 -14 60
14 49 13 1240 -1 1277 -15 40 -48 73 -94 94 -38 18 -85 19 -895 19 -811 0
-857 -1 -896 -19z m1648 -92 c27 -14 12 -27 -43 -38 -42 -8 -41 -9 28 -10 60
-1 73 -4 78 -20 3 -10 6 -172 7 -360 0 -187 5 -341 9 -341 5 0 9 16 9 35 0 19
5 35 11 35 7 0 9 -12 5 -35 -4 -22 -3 -35 4 -35 5 0 10 9 10 20 0 11 5 20 10
20 6 0 10 -93 10 -260 0 -167 -4 -260 -10 -260 -6 0 -9 -3 -9 -7 3 -19 -2 -23
-14 -12 -17 17 -10 131 9 142 15 9 18 94 4 137 -8 24 -8 24 -9 3 -1 -13 -6
-23 -12 -23 -6 0 -8 17 -4 48 10 77 12 98 8 85 -3 -7 -11 -13 -20 -13 -13 0
-14 -24 -11 -184 1 -101 1 -184 -2 -184 -3 0 -149 -1 -325 -3 -176 -2 -283 -5
-237 -6 48 -2 82 -8 82 -14 0 -6 -12 -8 -29 -4 -22 5 -32 2 -39 -12 -10 -17
-41 -18 -549 -21 -523 -3 -539 -2 -570 17 -21 13 -35 33 -42 58 -15 55 -15
1149 0 1192 7 18 26 42 43 53 31 19 43 20 805 14 514 -5 780 -10 793 -17z
m109 -26 c13 -17 13 -17 -6 -3 -11 8 -22 16 -24 17 -2 2 0 3 6 3 6 0 17 -8 24
-17z m27 -395 l-1 -233 -8 180 c-6 160 -3 285 7 285 2 0 3 -105 2 -232z m-21
-140 c-2 -13 -4 -3 -4 22 0 25 2 35 4 23 2 -13 2 -33 0 -45z m-20 -50 c-3 -7
-5 -2 -5 12 0 14 2 19 5 13 2 -7 2 -19 0 -25z m-1442 -798 c277 0 283 -1 251
-42 -12 -16 -37 -18 -273 -18 l-259 0 -28 -29 c-23 -24 -25 -29 -11 -35 9 -3
131 -6 271 -6 140 0 254 -3 254 -6 0 -3 -5 -14 -10 -25 -10 -18 -24 -19 -288
-19 l-277 0 -28 -26 c-15 -14 -25 -29 -22 -35 4 -5 120 -9 281 -9 151 0 274
-3 274 -6 0 -3 -5 -14 -10 -25 -10 -18 -24 -19 -294 -19 l-283 0 -22 -24 c-13
-14 -20 -29 -16 -35 4 -7 95 -11 279 -11 150 0 275 -3 279 -6 8 -8 -20 -51
-61 -94 l-34 -35 -317 -3 c-305 -3 -318 -2 -342 17 -28 23 -33 11 66 138 39
50 118 156 178 236 l107 146 35 -15 c27 -11 91 -14 300 -14z m1679 -180 c77
-102 157 -206 179 -232 l39 -48 -370 0 -370 0 -21 34 c-12 18 -21 38 -21 45 0
8 78 11 280 11 252 0 281 2 287 17 4 10 -2 23 -16 35 -21 17 -46 18 -314 18
-264 0 -291 2 -303 18 -7 9 -14 20 -14 25 0 4 128 7 284 7 178 0 287 4 291 10
3 5 -5 21 -19 35 l-25 25 -290 0 c-284 0 -291 0 -301 21 -7 11 -9 23 -7 26 3
3 122 4 264 4 143 -1 267 1 277 5 15 6 14 10 -10 35 l-28 29 -272 0 c-271 0
-273 0 -288 22 -9 12 -16 26 -16 30 0 5 125 8 278 9 203 0 286 4 312 14 26 10
37 10 45 1 6 -6 73 -95 149 -196z m-869 150 l16 -30 -241 0 c-132 0 -240 2
-240 5 0 2 5 16 12 30 l11 25 213 0 213 0 16 -30z m61 -117 c7 -10 14 -21 14
-25 0 -5 -135 -8 -300 -8 -165 0 -300 3 -300 6 0 3 5 14 10 25 10 18 24 19
287 19 251 0 277 -2 289 -17z m74 -122 c5 -11 10 -22 10 -25 0 -3 -166 -6
-370 -6 -203 0 -370 3 -370 6 0 3 5 14 10 25 10 18 25 19 360 19 335 0 350 -1
360 -19z m65 -146 c11 -19 17 -36 15 -39 -9 -8 -860 -14 -865 -6 -3 5 4 25 16
44 l21 36 397 0 398 0 18 -35z m-410 -180 c693 0 1270 4 1283 8 18 7 22 5 22
-11 0 -10 -9 -27 -21 -38 -20 -18 -58 -19 -1278 -22 -1239 -2 -1256 -2 -1288
18 -20 12 -33 28 -33 40 0 17 4 19 28 13 15 -5 594 -8 1287 -8z"/>
<path d="M1775 3256 c-13 -19 -14 -29 -5 -45 10 -19 20 -21 115 -21 57 0 106
-4 109 -8 3 -5 28 -127 57 -273 29 -145 56 -270 62 -277 7 -9 93 -12 391 -10
l381 3 102 295 c57 162 103 307 103 322 0 37 -14 39 -190 36 l-145 -3 -3 -47
-3 -48 110 0 c121 0 129 -5 91 -52 -10 -14 -21 -37 -24 -51 -9 -49 -25 -59
-52 -32 -14 13 -13 15 5 15 14 0 21 6 21 19 0 11 6 22 13 24 6 3 -24 6 -69 6
l-81 1 -2 -32 c-2 -18 -4 -49 -4 -68 l-2 -35 73 -3 c70 -3 73 -4 66 -25 -12
-39 -25 -47 -79 -47 l-52 0 -7 -56 c-3 -30 -4 -60 -1 -65 4 -5 22 -9 42 -9 28
0 34 -3 29 -16 -3 -9 -6 -20 -6 -25 0 -5 -14 -9 -32 -9 -17 0 -39 -7 -49 -16
-16 -15 -20 -15 -41 0 -32 23 -263 23 -296 0 -20 -14 -24 -14 -44 0 -15 11
-46 16 -95 16 -67 0 -73 2 -77 23 -31 146 -46 225 -46 235 0 8 24 12 79 12
102 0 106 5 97 110 -6 76 -6 80 14 80 19 0 21 5 18 48 l-3 47 -47 3 c-80 5
-88 -4 -88 -109 l0 -90 -47 3 -47 3 -16 85 c-8 47 -19 91 -23 98 -6 9 -47 12
-147 12 -137 0 -140 0 -155 -24z m1071 -413 c-10 -10 -19 5 -10 18 6 11 8 11
12 0 2 -7 1 -15 -2 -18z"/>
<path d="M2411 3266 c-8 -9 -10 -28 -5 -50 l6 -36 140 0 139 0 -3 48 -3 47
-131 3 c-105 2 -133 0 -143 -12z"/>
<path d="M2653 3103 c9 -2 23 -2 30 0 6 3 -1 5 -18 5 -16 0 -22 -2 -12 -5z"/>
<path d="M2410 3000 l0 -30 140 0 140 0 0 30 0 30 -140 0 -140 0 0 -30z"/>
<path d="M2288 2893 c12 -2 30 -2 40 0 9 3 -1 5 -23 4 -22 0 -30 -2 -17 -4z"/>
<path d="M2411 2884 c0 -11 3 -14 6 -6 3 7 2 16 -1 19 -3 4 -6 -2 -5 -13z"/>
<path d="M2278 2800 c4 -25 9 -30 33 -30 26 0 29 4 29 30 0 27 -3 30 -33 30
-32 0 -33 -2 -29 -30z"/>
<path d="M2410 2800 l0 -31 138 3 137 3 3 28 3 27 -140 0 -141 0 0 -30z"/>
<path d="M3321 2634 c0 -11 3 -14 6 -6 3 7 2 16 -1 19 -3 4 -6 -2 -5 -13z"/>
<path d="M2154 2541 c-46 -28 -64 -59 -64 -111 0 -80 58 -140 136 -140 60 0
134 69 134 124 0 14 19 16 150 16 149 0 150 0 150 -22 0 -58 69 -118 135 -118
43 0 101 36 119 74 20 43 20 79 -1 123 -32 69 -123 94 -191 53 -29 -18 -50
-20 -212 -20 -162 0 -183 2 -212 20 -42 25 -104 26 -144 1z m98 -78 c34 -30
17 -83 -26 -83 -48 1 -69 47 -37 79 25 25 39 26 63 4z m570 0 c21 -18 24 -53
6 -71 -27 -27 -88 -3 -88 34 0 17 35 54 52 54 6 0 20 -7 30 -17z"/>
<path d="M3210 2334 c0 -8 5 -12 10 -9 6 4 8 11 5 16 -9 14 -15 11 -15 -7z"/>
<path d="M1840 1596 c0 -2 11 -6 25 -8 13 -3 22 -1 19 3 -5 9 -44 13 -44 5z"/>
<path d="M1162 3445 c-6 -14 -27 -33 -47 -42 -46 -22 -48 -56 -5 -72 17 -5 38
-24 48 -40 21 -37 49 -40 62 -6 5 13 27 33 50 45 22 11 40 27 40 35 0 8 -18
24 -40 35 -23 12 -46 32 -52 45 -14 32 -42 32 -56 0z"/>
<path d="M4112 3168 c-18 -18 -15 -42 8 -63 17 -15 24 -16 46 -7 21 10 25 18
22 45 -3 27 -7 32 -33 35 -17 2 -36 -3 -43 -10z"/>
<path d="M1105 2160 c-3 -5 -1 -10 4 -10 6 0 11 5 11 10 0 6 -2 10 -4 10 -3 0
-8 -4 -11 -10z"/>
<path d="M858 2073 c7 -3 16 -2 19 1 4 3 -2 6 -13 5 -11 0 -14 -3 -6 -6z"/>
<path d="M925 2040 c-3 -5 -1 -10 4 -10 6 0 11 5 11 10 0 6 -2 10 -4 10 -3 0
-8 -4 -11 -10z"/>
<path d="M988 2033 c6 -2 18 -2 25 0 6 3 1 5 -13 5 -14 0 -19 -2 -12 -5z"/>
<path d="M954 1952 c-18 -3 -17 -6 16 -42 l37 -40 105 0 106 0 31 35 c17 20
31 39 31 44 0 7 -277 10 -326 3z"/>
<path d="M3739 1949 c-9 -5 -5 -17 15 -44 l28 -36 119 2 c127 1 149 -5 149
-45 0 -37 28 -66 64 -66 39 0 66 26 66 63 0 30 -31 67 -57 67 -9 0 -31 14 -49
30 l-31 31 -146 3 c-80 2 -151 0 -158 -5z"/>
<path d="M895 1885 c-29 -28 -31 -42 -9 -73 29 -41 92 -24 110 30 5 16 0 27
-20 45 -34 29 -51 29 -81 -2z"/>
<path d="M2422 1260 c-42 -26 -77 -99 -68 -143 29 -144 212 -174 279 -44 l19
37 493 0 c319 0 496 -4 500 -10 3 -5 24 -10 45 -10 31 0 43 5 56 26 22 32 10
72 -27 93 -23 12 -29 12 -59 -2 -29 -15 -90 -17 -522 -19 l-490 -2 -25 32
c-49 63 -136 81 -201 42z m126 -77 c20 -28 15 -80 -10 -97 -30 -21 -50 -20
-82 5 -51 40 -15 127 49 115 16 -4 36 -14 43 -23z"/>
<path d="M1572 1263 c-17 -6 -42 -57 -42 -83 0 -31 53 -80 85 -80 32 0 85 50
85 80 0 26 -18 61 -39 77 -16 12 -65 16 -89 6z"/>
<path d="M1295 1190 c-36 -40 7 -100 58 -81 33 13 43 46 23 76 -20 30 -56 32
-81 5z"/>
<path d="M2130 1110 c-41 -41 -10 -110 49 -110 32 0 71 39 71 71 0 29 -36 59
-70 59 -17 0 -39 -9 -50 -20z"/>
<path d="M2836 1011 c-4 -5 -3 -16 0 -25 5 -14 31 -16 187 -16 159 0 178 2
161 14 -20 15 -17 19 31 29 11 3 -69 5 -177 6 -109 0 -199 -3 -202 -8z"/>
<path d="M2644 957 c-70 -61 5 -160 87 -116 46 24 42 105 -7 128 -36 16 -49
14 -80 -12z"/>
<path d="M2316 944 c-30 -29 -11 -84 29 -84 47 0 64 57 27 88 -21 16 -37 15
-56 -4z"/>
</g>
</svg>
