<?xml version="1.0" standalone="no"?>
<!DOCTYPE svg PUBLIC "-//W3C//DTD SVG 20010904//EN"
 "http://www.w3.org/TR/2001/REC-SVG-20010904/DTD/svg10.dtd">
<svg version="1.0" xmlns="http://www.w3.org/2000/svg"
 width="500.000000pt" height="500.000000pt" viewBox="0 0 500.000000 500.000000"
 preserveAspectRatio="xMidYMid meet">

<g transform="translate(0.000000,500.000000) scale(0.100000,-0.100000)"
fill="#000000" stroke="none">
<path d="M1860 3479 c-82 -14 -189 -70 -257 -136 -64 -63 -102 -123 -136 -218
-21 -58 -22 -74 -25 -609 -2 -360 1 -573 8 -620 28 -187 161 -345 346 -412
l65 -24 582 0 c630 0 633 1 742 55 115 59 216 179 256 305 20 63 20 87 19 646
-1 527 -2 588 -19 647 -44 159 -168 290 -332 349 -64 23 -66 23 -629 25 -311
0 -590 -3 -620 -8z m1040 -306 c68 -22 141 -88 177 -161 25 -50 28 -68 27
-147 0 -49 -2 -106 -3 -125 -2 -19 4 -60 13 -90 66 -217 -1 -490 -162 -662
-37 -39 -81 -86 -98 -104 -39 -41 -99 -59 -153 -44 -43 11 -97 64 -107 105 -6
25 -6 25 -134 25 l-128 0 -12 -35 c-23 -70 -107 -114 -182 -95 -34 9 -61 30
-132 103 -138 142 -191 236 -222 395 -17 91 -18 178 0 260 l13 63 -27 19 c-53
38 -75 122 -46 178 33 64 79 86 170 84 57 -2 60 -1 113 48 73 67 171 123 263
152 60 18 98 23 192 23 64 0 120 -3 124 -7 4 -4 -24 -36 -62 -70 -246 -224
-364 -342 -364 -364 0 -55 -5 -54 455 -54 l424 0 15 28 c7 15 19 54 26 86 38
185 -74 360 -251 395 -38 8 -40 9 -13 10 18 1 55 -7 84 -16z m-44 -103 c87
-43 132 -158 108 -279 l-6 -31 -302 1 -301 0 150 145 c82 79 168 153 190 164
51 26 108 25 161 0z"/>
<path d="M1845 2863 c-32 -8 -55 -34 -55 -63 0 -38 33 -64 82 -65 31 -1 43 -6
49 -21 4 -10 35 -134 69 -274 34 -140 71 -272 83 -293 12 -21 37 -47 55 -59
l34 -21 -26 -14 c-67 -35 -45 -133 28 -133 64 0 96 54 66 111 -10 19 -5 19
231 19 234 0 242 -1 226 -18 -46 -50 2 -122 73 -112 42 5 81 86 50 105 -18 11
-11 23 20 33 60 21 63 100 4 122 -14 6 -150 10 -314 10 -285 0 -289 0 -315 23
-23 19 -35 58 -96 302 -38 154 -77 290 -85 303 -28 42 -108 62 -179 45z"/>
<path d="M2184 2573 c3 -10 17 -65 31 -123 14 -58 31 -122 36 -142 l10 -38
294 0 293 0 31 25 c16 14 33 36 37 48 3 12 26 68 50 124 24 56 44 107 44 112
0 8 -131 11 -416 11 -391 0 -415 -1 -410 -17z"/>
<path d="M2761 2978 c-32 -29 -63 -62 -68 -73 -13 -26 0 -60 28 -75 29 -16 56
-3 119 56 41 38 50 53 50 80 0 33 -28 64 -57 64 -7 0 -40 -24 -72 -52z"/>
</g>
</svg>
