<?xml version="1.0" standalone="no"?>
<!DOCTYPE svg PUBLIC "-//W3C//DTD SVG 20010904//EN"
 "http://www.w3.org/TR/2001/REC-SVG-20010904/DTD/svg10.dtd">
<svg version="1.0" xmlns="http://www.w3.org/2000/svg"
 width="1024.000000pt" height="1024.000000pt" viewBox="0 0 1024.000000 1024.000000"
 preserveAspectRatio="xMidYMid meet">

<g transform="translate(0.000000,1024.000000) scale(0.100000,-0.100000)"
fill="blue" stroke="none">
<path d="M3900 7144 c-230 -33 -373 -90 -525 -209 -241 -188 -381 -437 -416
-740 -7 -59 -9 -474 -7 -1200 4 -1099 4 -1111 25 -1190 47 -174 107 -298 204
-421 137 -174 345 -313 564 -376 l80 -23 1190 0 1190 0 96 26 c288 80 524 267
672 532 53 93 104 256 117 367 8 66 10 439 7 1205 -4 1201 -1 1134 -57 1305
-130 389 -479 674 -885 720 -83 9 -2192 13 -2255 4z m2015 -638 c102 -33 179
-80 256 -156 86 -84 134 -168 171 -297 29 -102 32 -315 4 -408 l-17 -60 26
-78 c54 -161 68 -257 69 -452 0 -203 -13 -291 -69 -465 -72 -222 -213 -441
-370 -572 -32 -27 -66 -66 -76 -87 -23 -52 -110 -126 -177 -151 -69 -27 -196
-24 -250 4 -80 42 -147 124 -168 206 l-11 45 -269 0 -268 0 -8 -38 c-20 -94
-107 -192 -200 -223 -69 -23 -186 -16 -248 15 -56 29 -126 94 -150 142 -10 19
-44 54 -74 78 -65 48 -167 165 -233 265 -97 147 -180 374 -209 570 -21 144
-14 379 15 516 l21 95 -23 15 c-55 37 -107 95 -128 143 -63 144 2 312 149 384
54 26 64 28 194 28 124 0 138 2 155 20 28 31 152 137 213 182 147 109 359 201
556 239 140 28 448 24 494 -7 12 -8 9 -15 -20 -40 -112 -99 -606 -557 -779
-722 l-73 -71 4 -55 c4 -45 10 -58 33 -77 l29 -23 865 -3 c476 -2 871 -2 878
0 14 4 57 119 78 209 22 91 21 261 -1 350 -45 181 -143 316 -299 411 -80 49
-168 74 -290 82 l-110 8 130 -3 c83 -2 148 -9 180 -19z m-70 -216 c103 -50
198 -176 224 -298 14 -67 14 -187 0 -269 l-11 -63 -616 0 c-527 0 -614 2 -602
14 8 8 137 130 285 271 386 369 399 377 570 372 83 -2 109 -6 150 -27z"/>
<path d="M3745 5854 c1 -7 36 -152 78 -323 l77 -310 599 -3 c591 -2 600 -2
643 19 59 29 77 60 198 354 18 44 49 117 69 163 20 46 36 90 36 98 0 12 -122
14 -850 14 -674 0 -850 -3 -850 -12z"/>
<path d="M5744 6178 c-17 -13 -76 -66 -132 -118 -119 -110 -133 -138 -103
-206 32 -72 111 -95 180 -53 51 31 211 180 227 211 43 82 -22 188 -114 188
-15 0 -42 -10 -58 -22z"/>
</g>
</svg>