<svg width="19" height="19" viewBox="0 0 19 19" fill="none" xmlns="http://www.w3.org/2000/svg">
<path d="M17.2637 9.68466C17.2637 9.00119 17.2101 8.50244 17.0941 7.98523H9.54944V11.0701H13.978C13.8887 11.8367 13.4066 12.9912 12.3351 13.767L12.3201 13.8703L14.7056 15.7819L14.8709 15.799C16.3887 14.3489 17.2637 12.2153 17.2637 9.68466Z" fill="#4285F4"/>
<path d="M9.54892 17.8125C11.7185 17.8125 13.5399 17.0735 14.8703 15.799L12.3346 13.767C11.6561 14.2565 10.7453 14.5982 9.54892 14.5982C7.42395 14.5982 5.6204 13.1482 4.97748 11.1439L4.88324 11.1522L2.4028 13.138L2.37036 13.2313C3.69177 15.9467 6.40605 17.8125 9.54892 17.8125Z" fill="#34A853"/>
<path d="M4.97798 11.144C4.80834 10.6268 4.71016 10.0726 4.71016 9.50001C4.71016 8.92733 4.80834 8.37319 4.96905 7.85597L4.96456 7.74582L2.45303 5.72815L2.37085 5.76858C1.82624 6.8954 1.51373 8.16077 1.51373 9.50001C1.51373 10.8392 1.82624 12.1045 2.37085 13.2314L4.97798 11.144Z" fill="#FBBC05"/>
<path d="M9.54897 4.40164C11.0579 4.40164 12.0757 5.07588 12.6561 5.63932L14.9239 3.34875C13.5311 2.00952 11.7186 1.1875 9.54897 1.1875C6.40608 1.1875 3.69178 3.05318 2.37036 5.76857L4.96857 7.85596C5.62041 5.85173 7.42398 4.40164 9.54897 4.40164Z" fill="#EB4335"/>
</svg>
